<svg xmlns="http://www.w3.org/2000/svg" width="113" height="113" viewBox="0 0 113 113" fill="none">
  <path
    d="M51.7 84.6H61.1V47L77.55 63.45L84.224 56.776L56.4 28.952L28.576 56.776L35.25 63.45L51.7 47V84.6ZM56.4 9.40002C50.2279 9.40002 44.1162 10.6157 38.4139 12.9777C32.7116 15.3397 27.5304 18.8017 23.166 23.166C14.3518 31.9802 9.40002 43.9349 9.40002 56.4C9.40002 68.8652 14.3518 80.8198 23.166 89.634C31.9802 98.4483 43.9348 103.4 56.4 103.4C62.5722 103.4 68.6838 102.184 74.3861 99.8224C80.0884 97.4604 85.2697 93.9984 89.634 89.634C93.9984 85.2697 97.4604 80.0885 99.8224 74.3861C102.184 68.6838 103.4 62.5722 103.4 56.4C103.4 43.9349 98.4482 31.9802 89.634 23.166C80.8198 14.3518 68.8652 9.40002 56.4 9.40002ZM56.4 18.8C66.3722 18.8 75.9359 22.7614 82.9872 29.8128C90.0386 36.8642 94 46.4279 94 56.4C94 66.3722 90.0386 75.9359 82.9872 82.9872C75.9359 90.0386 66.3722 94 56.4 94C46.4279 94 36.8642 90.0386 29.8128 82.9872C22.7614 75.9359 18.8 66.3722 18.8 56.4C18.8 46.4279 22.7614 36.8642 29.8128 29.8128C36.8642 22.7614 46.4279 18.8 56.4 18.8Z"
    fill="currentColor" />
</svg>
