<svg xmlns="http://www.w3.org/2000/svg" width="113" height="113" viewBox="0 0 113 113" fill="none">
  <path
    d="M51.7 28.2H61.1V65.8L77.55 49.35L84.224 56.024L56.4 83.848L28.576 56.024L35.25 49.35L51.7 65.8V28.2ZM56.4 103.4C50.2279 103.4 44.1162 102.184 38.4139 99.8224C32.7116 97.4604 27.5304 93.9984 23.166 89.634C14.3518 80.8198 9.40002 68.8652 9.40002 56.4C9.40002 43.9348 14.3518 31.9802 23.166 23.166C31.9802 14.3518 43.9348 9.40002 56.4 9.40002C62.5722 9.40002 68.6838 10.6157 74.3861 12.9777C80.0884 15.3397 85.2697 18.8017 89.634 23.166C93.9984 27.5304 97.4604 32.7116 99.8224 38.4139C102.184 44.1162 103.4 50.2279 103.4 56.4C103.4 68.8652 98.4482 80.8198 89.634 89.634C80.8198 98.4482 68.8652 103.4 56.4 103.4ZM56.4 94C66.3722 94 75.9359 90.0386 82.9872 82.9872C90.0386 75.9359 94 66.3722 94 56.4C94 46.4279 90.0386 36.8642 82.9872 29.8128C75.9359 22.7614 66.3722 18.8 56.4 18.8C46.4279 18.8 36.8642 22.7614 29.8128 29.8128C22.7614 36.8642 18.8 46.4279 18.8 56.4C18.8 66.3722 22.7614 75.9359 29.8128 82.9872C36.8642 90.0386 46.4279 94 56.4 94Z"
    fill="currentColor" />
</svg>
