<svg xmlns="http://www.w3.org/2000/svg" width="113" height="113" viewBox="0 0 113 113" fill="none">
  <path
    d="M28.3999 51.7V61.1H65.9999L49.5499 77.55L56.2239 84.224L84.0479 56.4L56.2239 28.576L49.5499 35.25L65.9999 51.7H28.3999ZM103.6 56.4C103.6 50.2279 102.384 44.1162 100.022 38.4139C97.6602 32.7116 94.1982 27.5304 89.8339 23.166C81.0197 14.3518 69.065 9.40002 56.5999 9.40002C44.1347 9.40002 32.18 14.3518 23.3658 23.166C14.5516 31.9802 9.59985 43.9348 9.59985 56.4C9.59985 62.5722 10.8155 68.6838 13.1775 74.3861C15.5395 80.0884 19.0015 85.2697 23.3658 89.634C27.7302 93.9984 32.9114 97.4604 38.6137 99.8224C44.316 102.184 50.4277 103.4 56.5999 103.4C69.065 103.4 81.0197 98.4482 89.8339 89.634C98.6481 80.8198 103.6 68.8652 103.6 56.4ZM94.1999 56.4C94.1999 66.3722 90.2384 75.9359 83.1871 82.9872C76.1357 90.0386 66.572 94 56.5999 94C46.6277 94 37.064 90.0386 30.0126 82.9872C22.9613 75.9359 18.9999 66.3722 18.9999 56.4C18.9999 46.4279 22.9613 36.8642 30.0126 29.8128C37.064 22.7614 46.6277 18.8 56.5999 18.8C66.572 18.8 76.1357 22.7614 83.1871 29.8128C90.2384 36.8642 94.1999 46.4279 94.1999 56.4Z"
    fill="currentColor" />
</svg>
