<svg xmlns="http://www.w3.org/2000/svg" width="113" height="113" viewBox="0 0 113 113" fill="none">
  <path
    d="M56.3999 9.40002C50.2278 9.40002 44.1161 10.6157 38.4138 12.9777C32.7115 15.3397 27.5302 18.8017 23.1659 23.166C14.3517 31.9802 9.3999 43.9349 9.3999 56.4C9.3999 68.8652 14.3517 80.8198 23.1659 89.634C27.5302 93.9984 32.7115 97.4604 38.4138 99.8224C44.1161 102.184 50.2278 103.4 56.3999 103.4C68.8651 103.4 80.8197 98.4483 89.6339 89.634C98.4481 80.8198 103.4 68.8652 103.4 56.4C103.4 50.2279 102.184 44.1162 99.8223 38.4139C97.4603 32.7116 93.9983 27.5304 89.6339 23.166C85.2696 18.8017 80.0883 15.3397 74.386 12.9777C68.6837 10.6157 62.572 9.40002 56.3999 9.40002ZM56.3999 18.8C66.372 18.8 75.9358 22.7614 82.9871 29.8128C90.0385 36.8642 93.9999 46.4279 93.9999 56.4C93.9999 66.3722 90.0385 75.9359 82.9871 82.9872C75.9358 90.0386 66.372 94 56.3999 94C46.4278 94 36.8641 90.0386 29.8127 82.9872C22.7613 75.9359 18.7999 66.3722 18.7999 56.4C18.7999 46.4279 22.7613 36.8642 29.8127 29.8128C36.8641 22.7614 46.4278 18.8 56.3999 18.8ZM45.8249 36.754C38.5869 36.754 32.8999 42.441 32.8999 49.679C32.8999 58.562 40.8899 65.8 53.0159 76.798L56.3999 79.9L59.7839 76.798C71.9099 65.8 79.8999 58.562 79.8999 49.679C79.8999 42.441 74.2129 36.754 66.9749 36.754C62.8859 36.754 58.9849 38.681 56.3999 41.689C53.8149 38.681 49.9139 36.754 45.8249 36.754Z"
    fill="currentColor" />
</svg>
