<svg xmlns="http://www.w3.org/2000/svg" width="113" height="113" viewBox="0 0 113 113" fill="none">
  <path
    d="M42.3 103.4C41.0535 103.4 39.858 102.905 38.9766 102.023C38.0952 101.142 37.6 99.9465 37.6 98.7V84.6H18.8C16.307 84.6 13.9161 83.6097 12.1532 81.8468C10.3904 80.084 9.40002 77.6931 9.40002 75.2V18.8C9.40002 13.583 13.63 9.40002 18.8 9.40002H94C96.4931 9.40002 98.884 10.3904 100.647 12.1532C102.41 13.9161 103.4 16.307 103.4 18.8V75.2C103.4 77.6931 102.41 80.084 100.647 81.8468C98.884 83.6097 96.4931 84.6 94 84.6H65.33L47.94 102.037C47 102.93 45.825 103.4 44.65 103.4H42.3ZM47 75.2V89.676L61.476 75.2H94V18.8H18.8V75.2H47ZM79.9 51.7H70.5V42.3H79.9V51.7ZM61.1 51.7H51.7V42.3H61.1V51.7ZM42.3 51.7H32.9V42.3H42.3V51.7Z"
    fill="currentColor" />
</svg>
