<svg xmlns="http://www.w3.org/2000/svg" width="113" height="113" viewBox="0 0 113 113" fill="none">
  <path
    d="M56.4 82.25C67.351 82.25 76.61 75.388 80.417 65.8H32.383C36.143 75.388 45.449 82.25 56.4 82.25ZM39.95 51.7C41.8198 51.7 43.613 50.9573 44.9351 49.6351C46.2573 48.313 47 46.5198 47 44.65C47 42.7802 46.2573 40.9871 44.9351 39.6649C43.613 38.3428 41.8198 37.6 39.95 37.6C38.0802 37.6 36.2871 38.3428 34.9649 39.6649C33.6428 40.9871 32.9 42.7802 32.9 44.65C32.9 46.5198 33.6428 48.313 34.9649 49.6351C36.2871 50.9573 38.0802 51.7 39.95 51.7ZM72.85 51.7C74.7198 51.7 76.513 50.9573 77.8351 49.6351C79.1572 48.313 79.9 46.5198 79.9 44.65C79.9 42.7802 79.1572 40.9871 77.8351 39.6649C76.513 38.3428 74.7198 37.6 72.85 37.6C70.9802 37.6 69.187 38.3428 67.8649 39.6649C66.5428 40.9871 65.8 42.7802 65.8 44.65C65.8 46.5198 66.5428 48.313 67.8649 49.6351C69.187 50.9573 70.9802 51.7 72.85 51.7ZM56.4 94C46.4279 94 36.8642 90.0386 29.8128 82.9872C22.7614 75.9359 18.8 66.3722 18.8 56.4C18.8 46.4279 22.7614 36.8642 29.8128 29.8128C36.8642 22.7614 46.4279 18.8 56.4 18.8C66.3722 18.8 75.9359 22.7614 82.9872 29.8128C90.0386 36.8642 94 46.4279 94 56.4C94 66.3722 90.0386 75.9359 82.9872 82.9872C75.9359 90.0386 66.3722 94 56.4 94ZM56.4 9.40002C30.409 9.40002 9.40002 30.55 9.40002 56.4C9.40002 68.8652 14.3518 80.8198 23.166 89.634C27.5304 93.9984 32.7116 97.4604 38.4139 99.8224C44.1162 102.184 50.2279 103.4 56.4 103.4C68.8652 103.4 80.8198 98.4482 89.634 89.634C98.4482 80.8198 103.4 68.8652 103.4 56.4C103.4 50.2279 102.184 44.1162 99.8224 38.4139C97.4604 32.7116 93.9984 27.5304 89.634 23.166C85.2697 18.8017 80.0884 15.3397 74.3861 12.9777C68.6838 10.6157 62.5722 9.40002 56.4 9.40002Z"
    fill="currentColor" />
</svg>
