<svg xmlns="http://www.w3.org/2000/svg" viewBox="0 0 72 72" width="32" height="32">
  <path
    d="M35.979 72.042c-19.862 0-36.021-16.159-36.021-36.021S16.117 0 35.979 0 72 16.159 72 36.021 55.841 72.042 35.979 72.042zM7.548 39.05c1.526 14.425 13.808 25.57 28.431 25.57 13.702 0 25.278-9.597 27.997-22.746-8.696 3.591-16.145 5.342-22.698 5.342-10.66 0-12.897-4.456-12.897-8.195 0-.397.035-.793.099-1.184-4.444 3.332-8.517 7.382-8.568 7.434a2.806 2.806 0 0 1-1.995.826 2.807 2.807 0 0 1-1.995-.826l-1.344-1.344a2.798 2.798 0 0 1-.826-1.995c0-.753.294-1.462.826-1.995l.149-.149c1.263-1.263 2.859-3.651 4.119-5.839-2.757 1.172-6.621 2.933-11.298 5.101zm28.45-.192c.515.333 2.228.775 5.28.775 6.442 0 14.031-2.056 23.174-6.284-1.356-14.624-13.66-25.927-28.473-25.927a28.493 28.493 0 0 0-19.313 7.528 28.565 28.565 0 0 0-8.749 15.569c9.239-4.271 12.702-5.694 15.201-5.694 1.574 0 2.847.552 3.891 1.687.603.644.976 1.439 1.115 2.379.07-.043.139-.085.209-.126l.688-.394c2.676-1.534 4.711-2.621 6.511-2.621 2.436 0 3.577 1.155 4.106 2.124 1.252 2.295-.093 4.971-1.734 7.522-.431.673-1.677 2.621-1.906 3.462z"
    fill="#ff76e1" />
</svg>
